<?xml version="1.0" encoding="UTF-8"?>
<svg id="Layer_1" data-name="Layer 1" xmlns="http://www.w3.org/2000/svg" viewBox="0 0 36 36">
  <path d="M13,18c0,.97,.29,1.87,.77,2.63l4.36-7.62s-.08-.01-.12-.01c-2.76,0-5,2.24-5,5Z"/>
  <path d="M11.94,23.83c-4.03-1.68-6.13-4.69-6.8-5.83,.95-1.61,4.75-7,12.86-7,.43,0,.84,.02,1.24,.05l1.08-1.9c-.74-.09-1.51-.15-2.33-.15-10.62,0-14.73,8.21-14.9,8.56l-.21,.44,.21,.44c.13,.26,2.4,4.78,7.84,7.14l1-1.75Z"/>
  <path d="M32.9,17.56c-.13-.28-2.76-5.49-9.13-7.64l2.53-4.43-1.74-.99L9.7,30.5l1.74,.99,2.79-4.89c1.16,.24,2.4,.39,3.77,.39,10.62,0,14.73-8.21,14.9-8.56l.21-.44-.21-.44Zm-14.9,7.44c-.97,0-1.87-.09-2.71-.24l1.16-2.04c.49,.16,1.01,.27,1.55,.27,2.76,0,5-2.24,5-5,0-1.5-.67-2.82-1.71-3.74l1.46-2.56c4.89,1.51,7.37,5.04,8.11,6.3-.95,1.61-4.75,7-12.86,7Z"/>
</svg>