<?xml version="1.0" encoding="UTF-8"?>
<svg id="Layer_1" data-name="Layer 1" xmlns="http://www.w3.org/2000/svg" viewBox="0 0 36 36">
  <path d="M30,6V30H6V6H30m1-1H5V31H31V5h0Z"/>
  <g>
    <path d="M10.13,23.37c-.71-.7-1.09-1.66-1.15-2.87h1.12c.06,.94,.35,1.66,.85,2.16,.51,.5,1.21,.75,2.1,.75,.96,0,1.69-.23,2.19-.71,.51-.47,.76-1.1,.76-1.88,0-.36-.06-.7-.2-1.01s-.32-.58-.55-.8c-.23-.22-.52-.39-.87-.51-.35-.12-.74-.18-1.17-.18h-1.69v-1.01h1.69c.38,0,.73-.06,1.04-.17,.3-.12,.57-.28,.78-.49s.39-.46,.51-.75,.19-.6,.19-.94c0-.73-.23-1.31-.69-1.74-.46-.43-1.12-.65-1.99-.65-.78,0-1.41,.23-1.88,.69-.47,.46-.75,1.08-.83,1.87h-1.12c.02-.53,.13-1.01,.33-1.45,.19-.44,.45-.82,.78-1.13,.33-.31,.73-.55,1.19-.73,.46-.17,.98-.26,1.54-.26,.6,0,1.13,.08,1.61,.25,.47,.17,.87,.41,1.19,.7,.32,.3,.56,.66,.74,1.07,.18,.42,.26,.87,.26,1.38,0,.62-.16,1.19-.46,1.68-.31,.5-.76,.88-1.33,1.14,.67,.26,1.18,.66,1.54,1.19,.35,.53,.53,1.14,.53,1.84,0,.53-.09,1.01-.28,1.45-.19,.44-.45,.82-.8,1.14-.34,.32-.76,.57-1.26,.75-.51,.18-1.08,.27-1.73,.27-1.24,0-2.21-.35-2.92-1.05Z"/>
    <path d="M21.47,24.11c-.5-.21-.93-.53-1.28-.95-.36-.42-.63-.97-.83-1.63-.2-.66-.3-1.46-.3-2.39v-1.19c0-1.19,.11-2.19,.32-3s.5-1.47,.87-1.97c.37-.5,.81-.86,1.32-1.08,.51-.21,1.06-.32,1.65-.32,.47,0,.89,.07,1.27,.21,.38,.14,.71,.34,1,.58s.53,.52,.73,.84c.2,.33,.34,.68,.42,1.06h-1.13c-.18-.49-.45-.9-.82-1.22s-.85-.48-1.46-.48c-.43,0-.83,.08-1.2,.22-.37,.15-.69,.42-.97,.79-.27,.38-.49,.88-.65,1.51s-.25,1.43-.28,2.39c.31-.51,.73-.9,1.26-1.18s1.13-.42,1.8-.42c.55,0,1.06,.1,1.53,.3,.47,.2,.87,.47,1.22,.82s.61,.77,.8,1.26c.19,.49,.29,1.04,.29,1.66v.47c0,.6-.1,1.15-.3,1.64-.2,.49-.47,.91-.82,1.26-.35,.36-.76,.63-1.23,.83-.48,.2-.99,.3-1.54,.3-.6,0-1.15-.11-1.66-.32Zm-1.08-2.52c.15,.41,.35,.74,.61,1.01,.25,.27,.57,.47,.93,.61s.77,.21,1.2,.21,.78-.07,1.12-.21,.62-.34,.87-.61c.24-.26,.43-.58,.58-.95,.14-.37,.21-.79,.21-1.26v-.47c0-.48-.07-.9-.21-1.28-.14-.37-.33-.68-.58-.94-.25-.26-.54-.45-.87-.6-.34-.14-.71-.21-1.12-.21-.44,0-.85,.07-1.21,.21-.37,.14-.68,.33-.93,.58-.25,.25-.45,.54-.6,.89-.14,.35-.21,.74-.21,1.17v.47c0,.52,.07,.98,.21,1.38Z"/>
  </g>
</svg>