<?xml version="1.0" encoding="UTF-8"?>
<svg id="Layer_1" data-name="Layer 1" xmlns="http://www.w3.org/2000/svg" viewBox="0 0 36 36">
  <path d="M18,24c-3.31,0-6-2.69-6-6s2.69-6,6-6,6,2.69,6,6-2.69,6-6,6Zm0-10c-2.21,0-4,1.79-4,4s1.79,4,4,4,4-1.79,4-4-1.79-4-4-4Z"/>
  <path d="M20.95,33h-5.89l-.55-3.31c-.79-.24-1.56-.56-2.29-.95l-2.73,1.95-4.17-4.17,1.95-2.73c-.39-.73-.71-1.5-.95-2.29l-3.31-.55v-5.89l3.31-.55c.24-.79,.56-1.56,.95-2.29l-1.95-2.73,4.17-4.17,2.73,1.95c.73-.39,1.5-.71,2.29-.95l.55-3.31h5.89l.55,3.31c.79,.24,1.56,.56,2.29,.95l2.73-1.95,4.17,4.17-1.95,2.73c.39,.73,.71,1.5,.95,2.29l3.31,.55v5.89l-3.31,.55c-.24,.79-.56,1.56-.95,2.29l1.95,2.73-4.17,4.17-2.73-1.95c-.73,.39-1.5,.71-2.29,.95l-.55,3.31Zm-4.2-2h2.51l.49-2.93,.64-.15c1.04-.25,2.03-.66,2.94-1.22l.57-.35,2.41,1.72,1.77-1.77-1.72-2.41,.35-.57c.56-.91,.97-1.9,1.22-2.94l.15-.64,2.93-.49v-2.51l-2.93-.49-.15-.64c-.25-1.04-.66-2.03-1.22-2.94l-.35-.57,1.73-2.42-1.77-1.77-2.41,1.73-.57-.35c-.91-.56-1.9-.97-2.94-1.22l-.64-.15-.49-2.93h-2.51l-.49,2.93-.64,.15c-1.04,.25-2.03,.66-2.94,1.22l-.57,.35-2.42-1.73-1.77,1.77,1.73,2.42-.35,.57c-.56,.91-.97,1.9-1.22,2.94l-.15,.64-2.93,.49v2.51l2.93,.49,.15,.64c.25,1.04,.66,2.03,1.22,2.94l.35,.57-1.73,2.41,1.77,1.77,2.42-1.73,.57,.35c.91,.56,1.9,.97,2.94,1.22l.64,.15,.49,2.93Z"/>
</svg>