<?xml version="1.0" encoding="UTF-8"?>
<svg id="Layer_1" data-name="Layer 1" xmlns="http://www.w3.org/2000/svg" viewBox="0 0 48 48">
  <path d="M17,24c0,1.7,.6,3.25,1.61,4.46l6.5-11.37c-.36-.06-.73-.1-1.1-.1-3.87,0-7,3.13-7,7Z"/>
  <path d="M16.24,32.61c-6.2-2.38-9.28-7.13-10.11-8.61,1.12-2,6.33-10,17.87-10,.97,0,1.88,.07,2.77,.18l1.08-1.88c-1.21-.19-2.48-.3-3.84-.3-14.19,0-19.85,11.45-19.9,11.57l-.21,.43,.21,.43c.04,.09,3.33,6.73,11.15,9.91l.99-1.73Z"/>
  <path d="M43.9,23.57c-.04-.09-3.71-7.45-12.46-10.38l2.68-4.69-1.74-.99L14.1,39.5l1.74,.99,2.9-5.07c1.61,.36,3.35,.58,5.26,.58,14.19,0,19.85-11.45,19.9-11.57l.21-.43-.21-.43Zm-19.9,10.43c-1.52,0-2.91-.16-4.21-.41l1.75-3.06c.77,.29,1.6,.46,2.47,.46,3.87,0,7-3.13,7-7,0-2.21-1.03-4.16-2.62-5.45l2.06-3.61c7.09,2.17,10.54,7.48,11.43,9.06-1.12,2-6.33,10-17.87,10Z"/>
</svg>