<?xml version="1.0" encoding="UTF-8"?>
<svg id="Layer_1" data-name="Layer 1" xmlns="http://www.w3.org/2000/svg" viewBox="0 0 48 48">
  <path d="M24,44c-11.03,0-20-8.97-20-20,0-7.32,4.06-14.04,10.6-17.55l1.53-.82-.06,1.73c0,.15-.02,.29-.04,.43-.01,.07-.02,.14-.02,.21,0,13.23,10.77,24,24,24,.07,0,.14-.01,.21-.02,.15-.02,.29-.04,.44-.04l1.72-.04-.82,1.52c-3.51,6.54-10.24,10.59-17.55,10.59ZM14.02,9.12c-4.99,3.33-8.02,8.89-8.02,14.88,0,9.93,8.07,18,18,18,5.99,0,11.55-3.03,14.88-8.02-13.45-.57-24.29-11.41-24.86-24.86Z"/>
</svg>