<?xml version="1.0" encoding="UTF-8"?>
<svg id="Layer_1" data-name="Layer 1" xmlns="http://www.w3.org/2000/svg" viewBox="0 0 48 48">
  <defs>
    <style>
      .cls-1 {
        fill-rule: evenodd;
      }
    </style>
  </defs>
  <path class="cls-1" d="M17,12c-2.76,0-5,2.24-5,5,0-2.76-2.24-5-5-5,2.76,0,5-2.24,5-5,0,2.76,2.24,5,5,5Z"/>
  <path class="cls-1" d="M41,36c-2.76,0-5,2.24-5,5,0-2.76-2.24-5-5-5,2.76,0,5-2.24,5-5,0,2.76,2.24,5,5,5Z"/>
  <path class="cls-1" d="M28,30c-5.52,0-10,4.48-10,10,0-5.52-4.48-10-10-10,5.52,0,10-4.48,10-10,0,5.52,4.48,10,10,10Z"/>
  <path class="cls-1" d="M40,16c-3.87,0-7,3.13-7,7,0-3.87-3.13-7-7-7,3.87,0,7-3.13,7-7,0,3.87,3.13,7,7,7Z"/>
</svg>