<?xml version="1.0" encoding="UTF-8"?>
<svg id="Layer_1" data-name="Layer 1" xmlns="http://www.w3.org/2000/svg" viewBox="0 0 48 48">
  <path d="M41,7V41H7V7H41m1-1H6V42H42V6h0Z"/>
  <g>
    <path d="M10.38,27.07l8.25-11.47h1.35v11.47h2.45v1.05h-2.45v4.27h-1.15v-4.27H10.38v-1.05Zm8.45,0v-9.99l-7.13,9.99h7.13Z"/>
    <path d="M28.11,32.19c-.66-.24-1.21-.57-1.67-.99-.45-.42-.81-.9-1.05-1.46-.25-.56-.37-1.17-.37-1.82,0-1.04,.29-1.93,.89-2.68,.59-.75,1.38-1.28,2.37-1.62-.85-.32-1.52-.81-2.03-1.46-.5-.65-.76-1.45-.76-2.37,0-.6,.12-1.15,.36-1.68,.24-.53,.57-.99,1-1.38s.93-.7,1.53-.92,1.25-.34,1.93-.34,1.38,.11,1.97,.34,1.1,.53,1.52,.91c.42,.39,.75,.84,.99,1.37,.23,.53,.35,1.09,.35,1.7,0,.91-.25,1.7-.76,2.36s-1.18,1.16-2.03,1.47c.99,.34,1.78,.87,2.37,1.61,.6,.74,.89,1.64,.89,2.69,0,.64-.12,1.24-.37,1.8-.25,.56-.6,1.05-1.05,1.48-.46,.42-1.01,.76-1.67,1-.65,.24-1.39,.36-2.21,.36s-1.55-.12-2.21-.36Zm3.9-1c.5-.19,.93-.44,1.29-.77,.36-.33,.63-.71,.82-1.14s.28-.89,.28-1.37c0-.55-.11-1.04-.31-1.49-.21-.45-.49-.83-.85-1.16s-.79-.59-1.29-.78-1.04-.31-1.62-.36c-.59,.05-1.14,.17-1.65,.36-.5,.19-.93,.45-1.29,.77-.36,.32-.64,.71-.84,1.15-.2,.45-.3,.95-.3,1.51,0,.48,.09,.94,.28,1.38,.19,.44,.45,.82,.82,1.14s.79,.57,1.29,.76c.51,.18,1.07,.27,1.69,.27s1.19-.09,1.69-.27Zm-.31-8.35c.44-.17,.82-.39,1.15-.67,.33-.28,.59-.62,.78-1.04,.2-.41,.29-.86,.29-1.35,0-.43-.08-.84-.25-1.24-.17-.39-.42-.74-.73-1.04-.32-.31-.7-.54-1.14-.71-.44-.17-.93-.25-1.47-.25s-1.04,.08-1.47,.25c-.44,.17-.82,.4-1.14,.71-.32,.3-.56,.65-.73,1.04-.17,.4-.25,.81-.25,1.24,0,.49,.1,.94,.3,1.34s.46,.74,.79,1.02c.33,.28,.71,.51,1.15,.68s.89,.29,1.36,.34c.48-.05,.94-.16,1.38-.33Z"/>
  </g>
</svg>