<?xml version="1.0" encoding="UTF-8"?>
<svg id="Layer_1" data-name="Layer 1" xmlns="http://www.w3.org/2000/svg" viewBox="0 0 48 48">
  <path d="M44,13H15.86c-.45-1.72-2-3-3.86-3s-3.41,1.28-3.86,3H4v2h4.14c.45,1.72,2,3,3.86,3s3.41-1.28,3.86-3h28.14v-2Zm-32,3c-1.1,0-2-.9-2-2s.9-2,2-2,2,.9,2,2-.9,2-2,2Z"/>
  <path d="M44,23h-4.14c-.45-1.72-2-3-3.86-3s-3.41,1.28-3.86,3H4v2h28.14c.45,1.72,2,3,3.86,3s3.41-1.28,3.86-3h4.14v-2Zm-8,3c-1.1,0-2-.9-2-2s.9-2,2-2,2,.9,2,2-.9,2-2,2Z"/>
  <path d="M44,34H27.86c-.45-1.72-2-3-3.86-3s-3.41,1.28-3.86,3H4v2H20.14c.45,1.72,2,3,3.86,3s3.41-1.28,3.86-3h16.14v-2Zm-20,3c-1.1,0-2-.9-2-2s.9-2,2-2,2,.9,2,2-.9,2-2,2Z"/>
</svg>