<?xml version="1.0" encoding="UTF-8"?>
<svg id="Layer_1" data-name="Layer 1" xmlns="http://www.w3.org/2000/svg" viewBox="0 0 48 48">
  <path d="M24,44c-11.03,0-20-8.97-20-20S12.97,4,24,4s20,8.97,20,20-8.97,20-20,20Zm0-38C14.08,6,6,14.07,6,24s8.08,18,18,18,18-8.07,18-18S33.92,6,24,6Z"/>
  <rect x="23" y="33" width="2" height="4"/>
  <path d="M25,30h-2v-1.1c0-2.14,.83-4.15,2.34-5.66l2.29-2.29c.87-.87,1.36-2.07,1.36-3.29,0-2.57-2.09-4.66-4.66-4.66h-.34c-2.76,0-5,2.24-5,5h-2c0-3.86,3.14-7,7-7h.34c3.67,0,6.66,2.99,6.66,6.66,0,1.75-.71,3.47-1.95,4.71l-2.29,2.29c-1.13,1.13-1.76,2.64-1.76,4.24v1.1Z"/>
</svg>