<?xml version="1.0" encoding="UTF-8"?>
<svg id="Layer_1" data-name="Layer 1" xmlns="http://www.w3.org/2000/svg" viewBox="0 0 48 48">
  <path d="M24,33c-4.96,0-9-4.04-9-9s4.04-9,9-9,9,4.04,9,9-4.04,9-9,9Zm0-16c-3.86,0-7,3.14-7,7s3.14,7,7,7,7-3.14,7-7-3.14-7-7-7Z"/>
  <path d="M27.7,44h-7.39l-.74-4.41c-1.2-.34-2.36-.82-3.45-1.43l-3.64,2.6-5.23-5.23,2.6-3.64c-.61-1.09-1.09-2.25-1.43-3.45l-4.41-.74v-7.39l4.41-.74c.34-1.2,.82-2.36,1.43-3.45l-2.6-3.64,5.23-5.23,3.64,2.6c1.09-.61,2.25-1.09,3.45-1.43l.74-4.41h7.39l.74,4.41c1.2,.34,2.36,.82,3.45,1.43l3.64-2.6,5.23,5.23-2.6,3.64c.61,1.09,1.09,2.25,1.43,3.45l4.41,.74v7.39l-4.41,.74c-.34,1.2-.82,2.36-1.43,3.45l2.6,3.64-5.23,5.23-3.64-2.6c-1.09,.61-2.25,1.09-3.45,1.43l-.74,4.41Zm-5.7-2h4.01l.67-4.04,.64-.15c1.45-.35,2.83-.92,4.1-1.7l.57-.35,3.33,2.38,2.83-2.83-2.38-3.33,.35-.57c.78-1.27,1.35-2.65,1.7-4.1l.15-.64,4.04-.67v-4.01l-4.04-.67-.15-.64c-.35-1.45-.92-2.83-1.7-4.1l-.35-.57,2.38-3.33-2.83-2.83-3.33,2.38-.57-.35c-1.27-.78-2.65-1.35-4.1-1.7l-.64-.15-.67-4.04h-4.01l-.67,4.04-.64,.15c-1.45,.35-2.83,.92-4.1,1.7l-.57,.35-3.33-2.38-2.83,2.83,2.38,3.33-.35,.57c-.78,1.27-1.35,2.65-1.7,4.1l-.15,.64-4.04,.67v4.01l4.04,.67,.15,.64c.35,1.45,.92,2.83,1.7,4.1l.35,.57-2.38,3.33,2.83,2.83,3.33-2.38,.57,.35c1.27,.78,2.65,1.35,4.1,1.7l.64,.15,.67,4.04Z"/>
</svg>