<?xml version="1.0" encoding="UTF-8"?>
<svg id="Layer_1" data-name="Layer 1" xmlns="http://www.w3.org/2000/svg" viewBox="0 0 48 48">
  <rect x="23" y="4" width="2" height="9"/>
  <rect x="23" y="35" width="2" height="9"/>
  <rect x="35" y="23" width="9" height="2"/>
  <rect x="4" y="23" width="9" height="2"/>
  <rect x="30.46" y="12.04" width="9" height="2" transform="translate(1.02 28.54) rotate(-45)"/>
  <rect x="8.54" y="33.96" width="9" height="2" transform="translate(-20.9 19.46) rotate(-45)"/>
  <rect x="33.96" y="30.47" width="2" height="9" transform="translate(-14.48 34.96) rotate(-45)"/>
  <rect x="12.04" y="8.54" width="2" height="9" transform="translate(-5.4 13.04) rotate(-45)"/>
  <path d="M24,32c-4.41,0-8-3.59-8-8s3.59-8,8-8,8,3.59,8,8-3.59,8-8,8Zm0-14c-3.31,0-6,2.69-6,6s2.69,6,6,6,6-2.69,6-6-2.69-6-6-6Z"/>
</svg>