<?xml version="1.0" encoding="UTF-8"?>
<svg id="Layer_1" data-name="Layer 1" xmlns="http://www.w3.org/2000/svg" viewBox="0 0 48 48">
  <path d="M24,44c-5.34,0-10.36-2.08-14.14-5.86-3.78-3.78-5.86-8.8-5.86-14.14s2.08-10.36,5.86-14.14c3.78-3.78,8.8-5.86,14.14-5.86s10.36,2.08,14.14,5.86h0c3.78,3.78,5.86,8.8,5.86,14.14s-2.08,10.36-5.86,14.14c-3.78,3.78-8.8,5.86-14.14,5.86Zm0-38c-4.81,0-9.33,1.87-12.73,5.27-3.4,3.4-5.27,7.92-5.27,12.73s1.87,9.33,5.27,12.73c3.4,3.4,7.92,5.27,12.73,5.27s9.33-1.87,12.73-5.27c3.4-3.4,5.27-7.92,5.27-12.73s-1.87-9.33-5.27-12.73h0c-3.4-3.4-7.92-5.27-12.73-5.27Z"/>
  <polygon points="21.89 31.75 12.74 22.6 14.15 21.18 21.89 28.92 33.85 16.96 35.26 18.37 21.89 31.75"/>
</svg>