<?xml version="1.0" encoding="UTF-8"?>
<svg id="Layer_1" data-name="Layer 1" xmlns="http://www.w3.org/2000/svg" viewBox="0 0 36 36">
  <path d="M18,33c-4.01,0-7.77-1.56-10.61-4.39s-4.39-6.6-4.39-10.61,1.56-7.77,4.39-10.61S13.99,3,18,3s7.77,1.56,10.61,4.39h0c2.83,2.83,4.39,6.6,4.39,10.61s-1.56,7.77-4.39,10.61-6.6,4.39-10.61,4.39Zm0-28c-3.47,0-6.74,1.35-9.19,3.81s-3.81,5.72-3.81,9.19,1.35,6.74,3.81,9.19,5.72,3.81,9.19,3.81,6.74-1.35,9.19-3.81,3.81-5.72,3.81-9.19-1.35-6.74-3.81-9.19h0c-2.46-2.46-5.72-3.81-9.19-3.81Z"/>
  <polygon points="25.07 12.34 23.66 10.93 18 16.59 12.34 10.93 10.93 12.34 16.59 18 10.93 23.66 12.34 25.07 18 19.41 23.66 25.07 25.07 23.66 19.41 18 25.07 12.34"/>
</svg>