<?xml version="1.0" encoding="UTF-8"?>
<svg id="Layer_1" data-name="Layer 1" xmlns="http://www.w3.org/2000/svg" viewBox="0 0 36 36">
  <path d="M32.9,13.44l-1.8-.88c-.15,.3-3.77,7.44-13.1,7.44S5.05,12.86,4.9,12.56l-1.8,.88c.09,.18,1.18,2.35,3.6,4.47l-2.76,4.14,1.66,1.11,2.69-4.03c.9,.61,1.91,1.18,3.08,1.64l-1.33,4.67,1.92,.55,1.31-4.6c1.13,.3,2.37,.5,3.72,.57v4.53h2v-4.53c1.35-.07,2.59-.27,3.72-.57l1.31,4.6,1.92-.55-1.33-4.67c1.16-.47,2.18-1.03,3.08-1.64l2.69,4.03,1.66-1.11-2.76-4.14c2.42-2.12,3.52-4.29,3.6-4.47Z"/>
</svg>