<?xml version="1.0" encoding="UTF-8"?>
<svg id="Layer_1" data-name="Layer 1" xmlns="http://www.w3.org/2000/svg" viewBox="0 0 36 36">
  <defs>
    <style>
      .cls-1 {
        fill-rule: evenodd;
      }
    </style>
  </defs>
  <path class="cls-1" d="M21,23c-4.42,0-8,3.58-8,8,0-4.42-3.58-8-8-8,4.42,0,8-3.58,8-8,0,4.42,3.58,8,8,8Z"/>
  <path class="cls-1" d="M13,9c-2.21,0-4,1.79-4,4,0-2.21-1.79-4-4-4,2.21,0,4-1.79,4-4,0,2.21,1.79,4,4,4Z"/>
  <path class="cls-1" d="M31,27c-2.21,0-4,1.79-4,4,0-2.21-1.79-4-4-4,2.21,0,4-1.79,4-4,0,2.21,1.79,4,4,4Z"/>
  <path class="cls-1" d="M31,12c-3.31,0-6,2.68-6,6,0-3.32-2.69-6-6-6,3.31,0,6-2.68,6-6,0,3.32,2.69,6,6,6Z"/>
</svg>