<?xml version="1.0" encoding="UTF-8"?>
<svg id="Layer_1" data-name="Layer 1" xmlns="http://www.w3.org/2000/svg" viewBox="0 0 36 36">
  <path d="M33,8H12.86c-.45-1.72-2-3-3.86-3s-3.41,1.28-3.86,3H3v2h2.14c.45,1.72,2,3,3.86,3s3.41-1.28,3.86-3h20.14v-2Zm-24,3c-1.1,0-2-.9-2-2s.9-2,2-2,2,.9,2,2-.9,2-2,2Z"/>
  <path d="M33,17h-2.14c-.45-1.72-2-3-3.86-3s-3.41,1.28-3.86,3H3v2H23.14c.45,1.72,2,3,3.86,3s3.41-1.28,3.86-3h2.14v-2Zm-6,3c-1.1,0-2-.9-2-2s.9-2,2-2,2,.9,2,2-.9,2-2,2Z"/>
  <path d="M33,26h-11.14c-.45-1.72-2-3-3.86-3s-3.41,1.28-3.86,3H3v2H14.14c.45,1.72,2,3,3.86,3s3.41-1.28,3.86-3h11.14v-2Zm-15,3c-1.1,0-2-.9-2-2s.9-2,2-2,2,.9,2,2-.9,2-2,2Z"/>
</svg>