<?xml version="1.0" encoding="UTF-8"?>
<svg id="Layer_1" data-name="Layer 1" xmlns="http://www.w3.org/2000/svg" viewBox="0 0 36 36">
  <rect x="17" y="25" width="2" height="3"/>
  <path d="M18,33c-8.27,0-15-6.73-15-15S9.73,3,18,3s15,6.73,15,15-6.73,15-15,15Zm0-28c-7.17,0-13,5.83-13,13s5.83,13,13,13,13-5.83,13-13-5.83-13-13-13Z"/>
  <path d="M19,23h-2c0-1.9,.93-3.68,2.48-4.75l.7-.5c1.14-.8,1.82-2.1,1.82-3.49v-.26c0-2.21-1.79-4-4-4s-4,1.79-4,4v.5h-2v-.5c0-3.31,2.69-6,6-6s6,2.69,6,6v.26c0,2.05-1,3.96-2.67,5.13l-.7,.5c-1.02,.71-1.62,1.87-1.62,3.11Z"/>
</svg>