<?xml version="1.0" encoding="UTF-8"?>
<svg id="Layer_1" data-name="Layer 1" xmlns="http://www.w3.org/2000/svg" viewBox="0 0 18 18">
  <path d="M9,17c-2.05,0-4.1-.78-5.66-2.34C.22,11.54,.22,6.46,3.34,3.34,6.46,.22,11.54,.22,14.66,3.34h0c3.12,3.12,3.12,8.2,0,11.31-1.56,1.56-3.61,2.34-5.66,2.34Zm0-13.99c-1.54,0-3.07,.58-4.24,1.75-2.34,2.34-2.34,6.15,0,8.49,2.34,2.34,6.15,2.34,8.49,0,2.34-2.34,2.34-6.15,0-8.49-1.17-1.17-2.71-1.75-4.24-1.75Z"/>
  <polygon points="12.54 6.88 11.12 5.46 9 7.59 6.88 5.46 5.46 6.88 7.59 9 5.46 11.12 6.88 12.54 9 10.41 11.12 12.54 12.54 11.12 10.41 9 12.54 6.88"/>
</svg>