<?xml version="1.0" encoding="UTF-8"?>
<svg id="Layer_1" data-name="Layer 1" xmlns="http://www.w3.org/2000/svg" viewBox="0 0 18 18">
  <path d="M5.6,11.18c-1.28-.68-2.07-1.63-2.44-2.18,.6-.89,2.26-2.79,5.38-2.97l1.14-2c-.23-.02-.45-.03-.69-.03C3.38,4,1.19,8.38,1.1,8.56l-.21,.44,.21,.44c.06,.13,1.09,2.18,3.5,3.49l1-1.75Z"/>
  <path d="M16.9,8.56c-.07-.14-1.32-2.62-4.29-3.86l1.26-2.2-1.74-.99L4.13,15.5l1.74,.99,1.51-2.65c.51,.09,1.04,.15,1.62,.15,5.62,0,7.81-4.38,7.9-4.56l.21-.44-.21-.44Zm-7.9,3.44c-.19,0-.37-.02-.55-.03l.29-.5c.09,0,.17,.03,.26,.03,1.38,0,2.5-1.12,2.5-2.5,0-.56-.2-1.06-.51-1.47l.6-1.05c1.77,.66,2.8,1.87,3.24,2.53-.63,.93-2.41,3-5.84,3Z"/>
</svg>