<?xml version="1.0" encoding="UTF-8"?>
<svg id="Layer_1" data-name="Layer 1" xmlns="http://www.w3.org/2000/svg" viewBox="0 0 18 18">
  <path d="M16.9,6.44l-1.8-.88c-.07,.14-1.77,3.44-6.1,3.44S2.97,5.7,2.9,5.56l-1.8,.88c.04,.09,.54,1.07,1.62,2.1l-1.18,1.87,1.69,1.07,1.08-1.72c.25,.15,.52,.29,.8,.42l-.58,2.15,1.93,.52,.55-2.05c.31,.06,.64,.12,.98,.15v2.05h2v-2.05c.34-.03,.67-.08,.98-.15l.55,2.05,1.93-.52-.58-2.15c.28-.13,.55-.27,.8-.42l1.08,1.72,1.69-1.07-1.18-1.87c1.07-1.03,1.57-2.02,1.62-2.1Z"/>
</svg>