<?xml version="1.0" encoding="UTF-8"?>
<svg id="Layer_1" data-name="Layer 1" xmlns="http://www.w3.org/2000/svg" viewBox="0 0 18 18">
  <path d="M5.01,3.25c-1.82,1.26-3.01,3.37-3.01,5.75,0,3.87,3.13,7,7,7,2.38,0,4.49-1.19,5.75-3.01-5.32-.13-9.6-4.41-9.74-9.74Z"/>
  <path d="M9,17c-4.41,0-8-3.59-8-8,0-2.62,1.29-5.07,3.44-6.57l1.52-1.06,.05,1.86c.12,4.79,3.97,8.64,8.76,8.76l1.86,.05-1.06,1.52c-1.5,2.16-3.95,3.44-6.57,3.44ZM4.26,5.33c-.8,1.04-1.26,2.33-1.26,3.67,0,3.31,2.69,6,6,6,1.34,0,2.63-.45,3.67-1.26-4.21-.91-7.51-4.21-8.41-8.41Z"/>
</svg>