<?xml version="1.0" encoding="UTF-8"?>
<svg id="Layer_1" data-name="Layer 1" xmlns="http://www.w3.org/2000/svg" viewBox="0 0 18 18">
  <defs>
    <style>
      .cls-1 {
        fill-rule: evenodd;
      }
    </style>
  </defs>
  <path class="cls-1" d="M16,14c-1.1,0-2,.89-2,2h0c0-1.11-.9-2-2-2,1.1,0,2-.89,2-2h0c0,1.11,.9,2,2,2Z"/>
  <path class="cls-1" d="M6,4c-1.1,0-2,.89-2,2h0c0-1.11-.9-2-2-2,1.1,0,2-.89,2-2h0c0,1.11,.9,2,2,2Z"/>
  <path class="cls-1" d="M11,11.5c-2.48,0-4.5,2.02-4.5,4.5,0-2.48-2.02-4.5-4.5-4.5,2.48,0,4.5-2.02,4.5-4.5,0,2.48,2.02,4.5,4.5,4.5Z"/>
  <path class="cls-1" d="M16,6c-1.66,0-3,1.34-3,3,0-1.66-1.34-3-3-3,1.66,0,3-1.34,3-3,0,1.66,1.34,3,3,3Z"/>
</svg>