<?xml version="1.0" encoding="UTF-8"?>
<svg id="Layer_1" data-name="Layer 1" xmlns="http://www.w3.org/2000/svg" viewBox="0 0 18 18">
  <path d="M15,3V15H3V3H15m1-1H2v14h14V2h0Z"/>
  <g>
    <path d="M6.34,6.88l-1.27,.87v-1.03l1.27-.87h.97v6.3h-.97V6.88Z"/>
    <path d="M9.77,12.1c-.27-.09-.5-.21-.69-.38-.19-.16-.32-.35-.42-.58-.09-.22-.14-.47-.14-.73,0-.36,.09-.67,.27-.93,.19-.25,.43-.46,.74-.62-.25-.14-.46-.32-.61-.54s-.22-.51-.22-.84c0-.24,.05-.46,.15-.67,.09-.21,.23-.39,.41-.54,.18-.16,.39-.27,.64-.36s.53-.13,.83-.13,.6,.04,.85,.13c.25,.09,.46,.21,.64,.36,.17,.15,.3,.33,.4,.54,.09,.21,.13,.44,.13,.68,0,.33-.07,.61-.23,.83-.15,.22-.36,.41-.62,.55,.31,.15,.56,.36,.75,.62,.19,.26,.28,.58,.28,.93,0,.25-.05,.49-.14,.72-.1,.22-.24,.42-.42,.58s-.42,.29-.69,.38c-.27,.09-.59,.14-.94,.14s-.69-.05-.96-.14Zm1.47-.83c.15-.05,.28-.12,.38-.21,.1-.09,.18-.19,.22-.3,.05-.11,.08-.23,.08-.37,0-.17-.03-.32-.09-.45-.06-.13-.15-.24-.26-.34-.11-.09-.23-.17-.38-.23-.15-.05-.3-.09-.45-.11-.16,.02-.32,.05-.46,.11-.15,.06-.27,.13-.39,.22-.11,.09-.19,.21-.25,.34s-.09,.28-.09,.46c0,.13,.03,.25,.08,.37,.05,.12,.13,.21,.23,.3s.23,.16,.38,.21c.15,.05,.32,.08,.5,.08s.36-.03,.51-.08Zm-.13-2.87c.12-.04,.23-.1,.32-.18s.17-.18,.22-.29c.05-.12,.08-.25,.08-.41,0-.12-.02-.22-.06-.33-.04-.1-.11-.19-.19-.27-.09-.08-.2-.15-.32-.19-.13-.05-.27-.07-.43-.07s-.3,.02-.42,.07c-.13,.04-.23,.11-.32,.19-.09,.08-.16,.18-.2,.27-.04,.1-.07,.21-.07,.33,0,.16,.03,.29,.09,.41,.06,.11,.14,.21,.23,.29s.2,.14,.32,.18c.12,.05,.24,.08,.37,.1,.13-.02,.26-.05,.38-.09Z"/>
  </g>
</svg>