<?xml version="1.0" encoding="UTF-8"?>
<svg id="Layer_1" data-name="Layer 1" xmlns="http://www.w3.org/2000/svg" viewBox="0 0 18 18">
  <circle cx="9" cy="9" r="2"/>
  <path d="M17,10.19v-2.39l-2.2-.32c-.14-.54-.35-1.05-.63-1.52l1.34-1.78-1.7-1.7-1.78,1.34c-.47-.28-.98-.49-1.52-.63l-.32-2.2h-2.39l-.32,2.2c-.54,.14-1.05,.35-1.52,.63l-1.78-1.34-1.7,1.7,1.34,1.78c-.28,.47-.49,.98-.63,1.51l-2.2,.31v2.4l2.2,.32c.14,.54,.35,1.05,.63,1.52l-1.34,1.78,1.7,1.7,1.78-1.34c.47,.28,.98,.49,1.52,.63l.32,2.2h2.39l.32-2.2c.54-.14,1.05-.35,1.52-.63l1.78,1.34,1.7-1.7-1.34-1.78c.28-.47,.49-.98,.63-1.52l2.2-.32Zm-8,2.81c-2.21,0-4-1.79-4-4s1.79-4,4-4,4,1.79,4,4-1.79,4-4,4Z"/>
</svg>