<?xml version="1.0" encoding="UTF-8"?>
<svg id="Layer_1" data-name="Layer 1" xmlns="http://www.w3.org/2000/svg" viewBox="0 0 18 18">
  <rect x="8" y="1" width="2" height="3"/>
  <rect x="8" y="14" width="2" height="3"/>
  <rect x="14" y="8" width="3" height="2"/>
  <rect x="1" y="8" width="3" height="2"/>
  <rect x="12.1" y="3.41" width="3" height="2" transform="translate(.87 10.91) rotate(-45)"/>
  <rect x="2.9" y="12.6" width="3" height="2" transform="translate(-8.33 7.1) rotate(-45)"/>
  <rect x="12.6" y="12.1" width="2" height="3" transform="translate(-5.63 13.6) rotate(-45)"/>
  <rect x="3.4" y="2.91" width="2" height="3" transform="translate(-1.83 4.4) rotate(-45)"/>
  <path d="M9,13c-2.21,0-4-1.79-4-4s1.79-4,4-4,4,1.79,4,4-1.79,4-4,4Zm0-6c-1.1,0-2,.9-2,2s.9,2,2,2,2-.9,2-2-.9-2-2-2Z"/>
</svg>