<?xml version="1.0" encoding="UTF-8"?>
<svg id="Layer_1" data-name="Layer 1" xmlns="http://www.w3.org/2000/svg" viewBox="0 0 18 18">
  <path d="M9,17c-2.05,0-4.1-.78-5.66-2.34C.22,11.54,.22,6.46,3.34,3.34,6.46,.22,11.54,.22,14.66,3.34h0c3.12,3.12,3.12,8.2,0,11.31-1.56,1.56-3.61,2.34-5.66,2.34Zm0-13.99c-1.54,0-3.07,.58-4.24,1.75-2.34,2.34-2.34,6.15,0,8.49,2.34,2.34,6.15,2.34,8.49,0,2.34-2.34,2.34-6.15,0-8.49-1.17-1.17-2.71-1.75-4.24-1.75Z"/>
  <polygon points="8 12.91 4.29 9.21 5.71 7.79 8 10.09 11.79 6.29 13.21 7.71 8 12.91"/>
</svg>