<?xml version="1.0" encoding="UTF-8"?>
<svg id="Layer_1" data-name="Layer 1" xmlns="http://www.w3.org/2000/svg" viewBox="0 0 24 24">
  <path d="M21.85,9.25l-1.8-.86c-.09,.18-2.25,4.5-8.02,4.61-5.74,.11-8.1-4.11-8.2-4.28l-.88,.47-.88,.46c.05,.1,.71,1.31,2.1,2.54l-1.5,2.25,1.66,1.11,1.45-2.17c.45,.27,.95,.53,1.5,.75l-.74,2.59,1.92,.55,.73-2.55c.56,.12,1.17,.2,1.81,.24v2.53h2v-2.56c.63-.06,1.23-.16,1.79-.29l.75,2.63,1.92-.55-.78-2.72c.52-.23,1-.49,1.44-.77l1.54,2.32,1.66-1.11-1.62-2.43c1.44-1.34,2.09-2.65,2.14-2.76Z"/>
</svg>