<?xml version="1.0" encoding="UTF-8"?>
<svg id="Layer_1" data-name="Layer 1" xmlns="http://www.w3.org/2000/svg" viewBox="0 0 24 24">
  <path d="M9.22,13.11l2.32-4.06c-1.43,.22-2.54,1.46-2.54,2.95,0,.39,.08,.76,.22,1.11Z"/>
  <path d="M8.02,15.2c-2.14-.93-3.36-2.45-3.85-3.2,.75-1.13,3.14-4,7.84-4,.05,0,.09,0,.13,0l1.11-1.95c-.4-.04-.81-.06-1.24-.06-7.04,0-9.78,5.33-9.89,5.55l-.22,.45,.22,.45c.08,.16,1.52,2.94,4.92,4.5l1-1.74Z"/>
  <path d="M21.89,11.55c-.09-.17-1.75-3.38-5.73-4.83l1.84-3.22-1.74-.99L5.99,20.5l1.74,.99,2.12-3.7c.67,.12,1.38,.21,2.16,.21,7.04,0,9.78-5.33,9.89-5.55l.22-.45-.22-.45Zm-9.89,4.45c-.38,0-.75-.02-1.1-.06l.58-1.01c.17,.03,.34,.07,.52,.07,1.66,0,3-1.34,3-3,0-.75-.29-1.42-.74-1.94l.89-1.56c2.66,.87,4.12,2.66,4.68,3.5-.75,1.13-3.14,4-7.84,4Z"/>
</svg>