<?xml version="1.0" encoding="UTF-8"?>
<svg id="Layer_1" data-name="Layer 1" xmlns="http://www.w3.org/2000/svg" viewBox="0 0 24 24">
  <defs>
    <style>
      .cls-1 {
        fill-rule: evenodd;
      }
    </style>
  </defs>
  <path class="cls-1" d="M8.5,6c-1.38,0-2.5,1.12-2.5,2.5,0-1.38-1.12-2.5-2.5-2.5,1.38,0,2.5-1.12,2.5-2.5,0,1.38,1.12,2.5,2.5,2.5Z"/>
  <path class="cls-1" d="M20.5,18c-1.38,0-2.5,1.12-2.5,2.5,0-1.38-1.12-2.5-2.5-2.5,1.38,0,2.5-1.12,2.5-2.5,0,1.38,1.12,2.5,2.5,2.5Z"/>
  <path class="cls-1" d="M14,15c-2.76,0-5,2.24-5,5,0-2.76-2.24-5-5-5,2.76,0,5-2.24,5-5,0,2.76,2.24,5,5,5Z"/>
  <path class="cls-1" d="M20,8c-1.93,0-3.5,1.57-3.5,3.5,0-1.93-1.57-3.5-3.5-3.5,1.93,0,3.5-1.57,3.5-3.5,0,1.93,1.57,3.5,3.5,3.5Z"/>
</svg>