<?xml version="1.0" encoding="UTF-8"?>
<svg id="Layer_1" data-name="Layer 1" xmlns="http://www.w3.org/2000/svg" viewBox="0 0 24 24">
  <path d="M20.05,4V20H4.05V4H20.05m1-1H3.05V21H21.05V3h0Z"/>
  <g>
    <path d="M5.78,15.35l2.93-2.87c.25-.25,.48-.48,.67-.69,.2-.21,.35-.4,.48-.57,.12-.18,.21-.34,.27-.5s.09-.32,.09-.49c0-.23-.04-.44-.12-.63s-.2-.36-.34-.49-.33-.24-.54-.32c-.21-.07-.44-.11-.7-.11s-.49,.04-.7,.11c-.21,.08-.4,.19-.54,.32-.15,.14-.26,.31-.34,.51-.08,.2-.12,.41-.12,.64h-1.04c0-.36,.07-.69,.2-1,.13-.3,.31-.57,.55-.79,.23-.22,.52-.4,.86-.52,.33-.12,.71-.19,1.13-.19s.79,.06,1.13,.19c.34,.13,.62,.3,.86,.52,.23,.22,.42,.49,.55,.79,.13,.3,.19,.62,.19,.98,0,.23-.04,.46-.12,.68-.08,.22-.2,.44-.35,.68s-.35,.47-.57,.71-.48,.51-.77,.79l-2.35,2.27h4.17v.9H5.78v-.9Z"/>
    <path d="M12.14,13.39l3.83-5.54h1.26v5.54h1.1v.91h-1.1v1.94h-.98v-1.94h-4.11v-.91Zm4.11,0v-4.43l-3.01,4.43h3.01Z"/>
  </g>
</svg>