<?xml version="1.0" encoding="UTF-8"?>
<svg id="Layer_1" data-name="Layer 1" xmlns="http://www.w3.org/2000/svg" viewBox="0 0 24 24">
  <path d="M22,17h-7.18c-.41-1.16-1.51-2-2.82-2s-2.4,.84-2.82,2H2v2h7.18c.41,1.16,1.51,2,2.82,2s2.4-.84,2.82-2h7.18v-2Zm-10,2c-.55,0-1-.45-1-1s.45-1,1-1,1,.45,1,1-.45,1-1,1Z"/>
  <path d="M22,5H8.82c-.41-1.16-1.51-2-2.82-2s-2.4,.84-2.82,2h-1.18v2h1.18c.41,1.16,1.51,2,2.82,2s2.4-.84,2.82-2h13.18v-2ZM6,7c-.55,0-1-.45-1-1s.45-1,1-1,1,.45,1,1-.45,1-1,1Z"/>
  <path d="M22,11h-1.18c-.41-1.16-1.51-2-2.82-2s-2.4,.84-2.82,2H2v2H15.18c.41,1.16,1.51,2,2.82,2s2.4-.84,2.82-2h1.18v-2Zm-4,2c-.55,0-1-.45-1-1s.45-1,1-1,1,.45,1,1-.45,1-1,1Z"/>
</svg>