<?xml version="1.0" encoding="UTF-8"?>
<svg id="Layer_1" data-name="Layer 1" xmlns="http://www.w3.org/2000/svg" viewBox="0 0 24 24">
  <path d="M12,22c-5.51,0-10-4.49-10-10S6.49,2,12,2s10,4.49,10,10-4.49,10-10,10Zm0-18c-4.41,0-8,3.59-8,8s3.59,8,8,8,8-3.59,8-8-3.59-8-8-8Z"/>
  <rect x="11" y="16" width="2" height="2"/>
  <path d="M13,15h-2c0-.9,.35-1.76,1-2.41l1.47-1.47c.34-.34,.53-.81,.53-1.29,0-1.01-.82-1.83-1.83-1.83h-.17c-1.1,0-2,.9-2,2h-2c0-2.21,1.79-4,4-4h.17c2.11,0,3.83,1.72,3.83,3.83,0,1.02-.4,1.98-1.12,2.71l-1.47,1.46c-.26,.27-.41,.63-.41,1Z"/>
</svg>