<?xml version="1.0" encoding="UTF-8"?>
<svg id="Layer_1" data-name="Layer 1" xmlns="http://www.w3.org/2000/svg" viewBox="0 0 24 24">
  <path d="M12,16c-2.21,0-4-1.79-4-4s1.79-4,4-4,4,1.79,4,4-1.79,4-4,4Zm0-6c-1.1,0-2,.9-2,2s.9,2,2,2,2-.9,2-2-.9-2-2-2Z"/>
  <path d="M22,13.5v-3l-2.22-.32c-.2-.86-.54-1.67-1-2.4l1.34-1.79-2.12-2.12-1.79,1.34c-.73-.46-1.54-.8-2.4-1l-.32-2.22h-3l-.32,2.22c-.86,.2-1.67,.54-2.4,1l-1.79-1.34-2.12,2.12,1.34,1.79c-.46,.73-.8,1.54-1,2.4l-2.22,.32v3l2.22,.32c.2,.86,.54,1.67,1,2.4l-1.34,1.79,2.12,2.12,1.79-1.34c.73,.46,1.54,.8,2.4,1l.32,2.22h3l.32-2.22c.86-.2,1.67-.54,2.4-1l1.79,1.34,2.12-2.12-1.34-1.79c.46-.73,.8-1.54,1-2.4l2.22-.32Zm-10,4.5c-3.31,0-6-2.69-6-6s2.69-6,6-6,6,2.69,6,6-2.69,6-6,6Z"/>
</svg>