<?xml version="1.0" encoding="UTF-8"?>
<svg id="Layer_1" data-name="Layer 1" xmlns="http://www.w3.org/2000/svg" viewBox="0 0 24 24">
  <path d="M12,22c-2.56,0-5.12-.98-7.07-2.92-3.9-3.9-3.9-10.24,0-14.14s10.24-3.9,14.14,0,3.9,10.24,0,14.14c-1.95,1.95-4.51,2.92-7.07,2.92Zm0-17.99c-2.05,0-4.1,.78-5.66,2.34-3.12,3.12-3.12,8.2,0,11.31s8.2,3.12,11.31,0,3.12-8.2,0-11.31c-1.56-1.56-3.61-2.34-5.66-2.34Z"/>
  <polygon points="11 16.41 6.29 11.71 7.71 10.29 11 13.59 16.29 8.29 17.71 9.71 11 16.41"/>
</svg>